<?xml version="1.0" encoding="UTF-8" standalone="no"?>
<!-- Created with Inkscape (http://www.inkscape.org/) -->

<svg
   width="32"
   height="32"
   viewBox="0 0 16 16"
   version="1.1"
   id="svg1"
   inkscape:export-filename="BOOK.svg"
   inkscape:export-xdpi="96"
   inkscape:export-ydpi="96"
   sodipodi:docname="BOOK.svg"
   inkscape:version="1.3.2 (091e20e, 2023-11-25, custom)"
   xmlns:inkscape="http://www.inkscape.org/namespaces/inkscape"
   xmlns:sodipodi="http://sodipodi.sourceforge.net/DTD/sodipodi-0.dtd"
   xmlns="http://www.w3.org/2000/svg"
   xmlns:svg="http://www.w3.org/2000/svg">
  <sodipodi:namedview
     id="namedview1"
     pagecolor="#ffffff"
     bordercolor="#000000"
     borderopacity="0.25"
     inkscape:showpageshadow="2"
     inkscape:pageopacity="0.0"
     inkscape:pagecheckerboard="0"
     inkscape:deskcolor="#d1d1d1"
     inkscape:document-units="px"
     inkscape:zoom="25.345359"
     inkscape:cx="-4.6556847"
     inkscape:cy="7.8712636"
     inkscape:window-width="3440"
     inkscape:window-height="1361"
     inkscape:window-x="-9"
     inkscape:window-y="-9"
     inkscape:window-maximized="1"
     inkscape:current-layer="layer1" />
  <defs
     id="defs1" />
  <g
     inkscape:label="Lager 1"
     inkscape:groupmode="layer"
     id="layer1">
    <path
       id="path2-3"
       style="fill:#000000;stroke-width:1.66985"
       d="M 1.0343636,1.3228077 V 3.3055579 C 0.43518775,3.4235519 0.01234164,3.5179955 0.01234173,3.5179955 l -0.008242,10.8428125 c 0,0 2.41869617,-1.079607 5.19253067,-0.586328 0.9198987,0.163582 2.7293032,0.901751 2.7961365,0.929061 v 0.0086 c 0,0 0.011977,-0.0055 0.012363,-0.0056 2.783e-4,1.15e-4 0.010303,0.0056 0.010303,0.0056 v -0.0086 C 8.0822659,14.676232 9.89167,13.938062 10.811569,13.77448 13.585403,13.281201 16.0041,14.360808 16.0041,14.360808 L 15.9959,3.5179955 c 0,0 -0.422846,-0.094442 -1.022022,-0.2124376 V 1.3228077 c 0,0 -2.760062,-0.021718 -3.869672,0.2860825 C 8.8749274,2.2272702 8.0660269,3.2192072 8.00513,3.2970605 7.949795,3.2260122 7.1417899,2.2296329 4.9040353,1.6088902 3.794429,1.3010905 1.0343635,1.3228076 1.0343636,1.3228077 Z M 1.652522,2.1640603 c 0,0 2.2916037,-0.019807 3.2123633,0.2407626 1.9256202,0.5449389 2.5818415,1.4417426 2.5818416,1.4417426 v 0.2775852 0.345565 8.7835853 0.246427 c 0,0 -0.063618,-0.0539 -0.1359948,-0.113307 -0.046603,-0.03823 -0.09115,-0.07143 -0.1669028,-0.127462 -0.063868,-0.04724 -0.1383882,-0.09938 -0.2225371,-0.155786 -0.00138,-9.3e-4 -0.00273,-0.0019 -0.00412,-0.0029 C 6.484221,12.810736 5.7980107,12.425926 4.8648853,12.154291 3.9251015,11.880757 1.652522,11.839883 1.652522,11.839883 V 4.1128207 3.186593 Z m 12.3302,0 c 0.229224,-0.00221 0.372955,0 0.372955,0 V 3.186593 4.1128207 11.839883 c 0,0 -2.272579,0.04087 -3.212363,0.314408 -0.933125,0.271637 -1.6193349,0.656445 -2.0522857,0.946056 -0.00137,0.001 -0.00275,0.0019 -0.00412,0.0029 -0.084148,0.0564 -0.1586679,0.10855 -0.222537,0.155786 -0.075751,0.05604 -0.1203038,0.08923 -0.1669028,0.127462 -0.072379,0.05939 -0.1359948,0.113307 -0.1359948,0.113307 V 13.253301 4.4697157 4.1241507 3.8465655 c 0,0 0.6562212,-0.8968036 2.5818413,-1.4417426 0.69057,-0.1954273 2.151735,-0.2341192 2.839407,-0.2407626 z M 1.0343636,4.2204556 v 8.5314924 c 0,0 0.8429126,0.01699 1.7844174,0.08497 -1.3163818,0.168529 -2.2068256,0.495687 -2.2068256,0.495687 L 0.622258,4.2941007 c 0,0 0.1716019,-0.030793 0.4121056,-0.073645 z m 13.9394724,0 c 0.240504,0.042852 0.412106,0.073645 0.412106,0.073645 l 0.0103,9.0385104 c 0,0 -0.890444,-0.327151 -2.206826,-0.495688 0.941506,-0.06799 1.784418,-0.08497 1.784418,-0.08497 z" />
  </g>
</svg>
