<?xml version="1.0" encoding="UTF-8" standalone="no"?>
<!-- Created with Inkscape (http://www.inkscape.org/) -->

<svg
   width="24"
   height="24"
   viewBox="0 0 32 32"
   version="1.1"
   id="svg1"
   inkscape:version="1.3.2 (091e20e, 2023-11-25, custom)"
   sodipodi:docname="BOOKS_24.svg"
   xmlns:inkscape="http://www.inkscape.org/namespaces/inkscape"
   xmlns:sodipodi="http://sodipodi.sourceforge.net/DTD/sodipodi-0.dtd"
   xmlns="http://www.w3.org/2000/svg"
   xmlns:svg="http://www.w3.org/2000/svg">
  <sodipodi:namedview
     id="namedview1"
     pagecolor="#ffffff"
     bordercolor="#000000"
     borderopacity="0.25"
     inkscape:showpageshadow="2"
     inkscape:pageopacity="0.0"
     inkscape:pagecheckerboard="0"
     inkscape:deskcolor="#d1d1d1"
     inkscape:document-units="px"
     inkscape:zoom="32"
     inkscape:cx="6.0625"
     inkscape:cy="14.859375"
     inkscape:window-width="3440"
     inkscape:window-height="1361"
     inkscape:window-x="-9"
     inkscape:window-y="-9"
     inkscape:window-maximized="1"
     inkscape:current-layer="layer1" />
  <defs
     id="defs1" />
  <g
     inkscape:label="Lager 1"
     inkscape:groupmode="layer"
     id="layer1">
    <path
       id="path1"
       style="fill:#000000;stroke:none;stroke-width:1.22426;stroke-opacity:1"
       d="m 6.0904226,11.946657 c -1.5651408,5.404229 -3.4131058,10.728934 -4.8913949,16.1554 -0.1495286,1.189368 0.356538,2.473541 1.6205382,3.866693 H 30.989136 c -2.758529,-3.415924 0.135154,-5.994375 0,-6.440845 l -4.66308,-13.458279 h -1.71236 l -0.0026,-0.0054 z"
       sodipodi:nodetypes="ccccccccc" />
    <path
       style="fill:#ffffff;fill-opacity:1;stroke:none;stroke-width:0.922381;stroke-opacity:1"
       d="m 4.2522804,26.696045 c -1.41539,1.170076 -1.5020847,2.633726 0,3.814376 H 28.834833 c -0.676842,-1.03435 -0.69553,-2.302625 0,-3.791401 z"
       id="path2-9"
       sodipodi:nodetypes="ccccc" />
    <path
       id="path1-7"
       style="fill:#000000;stroke:none;stroke-width:1.22426;stroke-opacity:1"
       d="M 7.1730498,6.569828 C 5.6079089,11.974057 3.7599442,17.298763 2.2816553,22.725229 2.1321261,23.914597 2.6381929,25.198771 3.9021928,26.591922 H 32.071764 c -2.75853,-3.415924 0.135153,-5.994375 0,-6.440844 L 27.408684,6.6927975 h -1.712361 l -0.0026,-0.00545 z"
       sodipodi:nodetypes="ccccccccc" />
    <path
       style="fill:#ffffff;fill-opacity:1;stroke:none;stroke-width:0.922381;stroke-opacity:1"
       d="m 5.334907,21.319217 c -1.4153894,1.170077 -1.5020838,2.633726 0,3.814376 H 29.91746 c -0.676842,-1.034349 -0.695529,-2.302625 0,-3.791401 z"
       id="path2-9-0"
       sodipodi:nodetypes="ccccc" />
    <path
       id="path1-7-9"
       style="fill:#000000;stroke:none;stroke-width:1.22426;stroke-opacity:1"
       d="M 4.8604143,0.52837865 C 3.2952733,5.9326083 1.4473087,11.257313 -0.03098013,16.683779 -0.18050941,17.873148 0.32555741,19.157322 1.5895573,20.550473 H 29.759128 c -2.75853,-3.415925 0.135154,-5.994375 0,-6.440845 L 25.096048,0.65134822 h -1.71236 l -0.0026,-0.005456 z"
       sodipodi:nodetypes="ccccccccc" />
    <path
       style="fill:#ffffff;fill-opacity:1;stroke:none;stroke-width:0.922381;stroke-opacity:1"
       d="m 3.0222715,15.277767 c -1.4153893,1.170077 -1.5020838,2.633727 0,3.814377 H 27.604825 c -0.676842,-1.034349 -0.69553,-2.302625 0,-3.7914 z"
       id="path2-9-0-5"
       sodipodi:nodetypes="ccccc" />
  </g>
</svg>
