<?xml version="1.0" encoding="UTF-8" standalone="no"?>
<!-- Created with Inkscape (http://www.inkscape.org/) -->

<svg
   width="24"
   height="24"
   viewBox="0 0 16 16"
   version="1.1"
   id="svg1"
   inkscape:export-filename="PORTAL.svg"
   inkscape:export-xdpi="96"
   inkscape:export-ydpi="96"
   sodipodi:docname="EARTH_24.svg"
   inkscape:version="1.3.2 (091e20e, 2023-11-25, custom)"
   xmlns:inkscape="http://www.inkscape.org/namespaces/inkscape"
   xmlns:sodipodi="http://sodipodi.sourceforge.net/DTD/sodipodi-0.dtd"
   xmlns="http://www.w3.org/2000/svg"
   xmlns:svg="http://www.w3.org/2000/svg">
  <sodipodi:namedview
     id="namedview1"
     pagecolor="#ffffff"
     bordercolor="#000000"
     borderopacity="0.25"
     inkscape:showpageshadow="2"
     inkscape:pageopacity="0.0"
     inkscape:pagecheckerboard="0"
     inkscape:deskcolor="#d1d1d1"
     inkscape:document-units="px"
     inkscape:zoom="25.345359"
     inkscape:cx="16.728901"
     inkscape:cy="10.86984"
     inkscape:window-width="3440"
     inkscape:window-height="1361"
     inkscape:window-x="-9"
     inkscape:window-y="-9"
     inkscape:window-maximized="1"
     inkscape:current-layer="layer1" />
  <defs
     id="defs1" />
  <g
     inkscape:label="Lager 1"
     inkscape:groupmode="layer"
     id="layer1">
    <path
       id="path1"
       style="fill:#000000;fill-opacity:1;stroke-width:2.53273"
       d="M 8.0000002,0 A 8.0000001,8 0 0 0 3.7999999e-7,8 8.0000001,8 0 0 0 8.0000002,16 8.0000001,8 0 0 0 16,8 8.0000001,8 0 0 0 8.0000002,0 Z m 0.427084,0.6796875 a 7.3333335,7.3333333 0 0 1 2.8958328,0.7838541 c 0.243919,0.543324 0.470419,1.2726075 -0.05989,1.2786459 -0.825973,0.0094 -1.9475138,-0.3174635 -2.1328148,0.041667 -0.170317,0.3300906 -1.4189164,1.3044899 -1.2005211,1.2890626 0.8249351,-0.058273 0.3515781,0.1276866 0.6276041,0.3828125 0.03686,0.034067 0.495084,-0.2744479 0.502604,-0.3229167 0.0071,-0.046043 0.09402,-0.4936924 0.125,-0.5286458 0.427083,-0.1557764 0.06348,-0.5664039 0.6875,-0.020833 0.1111638,0.1035294 -0.251775,0.2131075 -0.166666,0.3411459 0.03708,0.055788 0.02604,0.091228 0.02604,0.1588541 0,0.3561115 -0.306116,0.3576232 -0.583333,0.4635416 -0.260018,0.099347 -0.686953,0.1079716 -0.770835,0.3697918 C 8.1634562,5.5850853 8.0957962,5.5098463 8.0807302,5.6458333 7.78917,6.037813 7.3849456,5.6636772 7.0598964,6.09375 l -0.036458,0.947917 c 0.1003694,0.207081 0.6074032,0.488914 0.8125,0.494791 0.1876138,0.0054 0.00245,-0.0014 0.5598958,-0.02604 0.04248,-0.971504 0.474165,-0.269044 0.859375,-0.39323 0.156962,-0.0506 1.3497818,0.06616 1.4114578,0.21875 0.33401,0.826356 -2.0594738,0.161143 -3.1588536,0.502605 -0.5314021,0.456714 -1.0622077,1.369695 -0.5078126,1.989583 0.53415,0.597247 1.0504504,0.790676 2.2265624,0.932291 0.556338,0.397423 0.372282,0.910551 0.611979,2.067709 0.08332,0.402243 0.7833808,0.918992 0.9817708,0.914063 0.269596,-0.214477 0.511864,-0.464497 0.755208,-0.713543 0.14727,-0.150721 0.29455,-0.301808 0.427083,-0.468749 0.04764,-0.06 0.1046,-0.10248 0.145833,-0.169271 0.05279,-0.08549 0.09833,-0.18674 0.140626,-0.278646 0.06553,-0.142391 0.150645,-0.257524 0.203125,-0.40625 0.0408,-0.1156 0.0868,-0.410774 0.148437,-0.507812 0.02083,-0.03279 0.04581,-0.05989 0.06511,-0.09636 0.01796,-0.03393 0.0346,-0.08257 0.05729,-0.109373 0.325255,-0.399781 0.587576,-0.796191 0.869792,-1.218751 0.05221,-0.08456 -0.01465,-0.212722 0.01563,-0.302082 0.02176,-0.06424 0.06251,-0.106507 0.06771,-0.179688 0.0061,-0.08635 0.01067,-0.193046 0,-0.278646 -0.06175,-0.499113 -2.125,-0.688668 -2.125,-1.289063 -0.08232,-0.368051 1.66787,0.571583 1.921874,0.739583 0.555667,0.367524 1.445427,-0.02489 1.755209,0.359376 A 7.3333335,7.3333333 0 0 1 8.0000002,15.333334 7.3333335,7.3333333 0 0 1 5.4036467,14.835938 C 5.4542872,14.549892 5.5145213,13.901449 5.5364589,13.830729 5.8414882,12.847257 5.3748588,12.852588 5.4713548,12.734375 6.6463676,11.294943 5.4347065,10.678583 4.9348963,10.283855 4.6353038,10.047247 3.5502361,9.9550173 3.1901047,9.835937 2.9407743,9.753497 2.2019794,9.117655 2.3333338,8.929688 2.3684418,8.879448 2.5744511,8.414267 3.0130214,8.416667 3.6981263,8.420467 3.4580777,7.68571 3.8984381,7.684896 4.3721315,7.68402 4.6568763,7.116709 4.9973963,6.216146 5.0322362,6.124006 6.931936,4.4996567 5.9375005,4.4765625 5.3713269,4.463414 3.7430354,5.3130308 4.0651047,4.5 4.0985135,4.4156621 5.6741394,3.8995645 5.6562506,3.8072917 5.6427746,3.7377799 6.3417521,3.2131805 6.2916672,3.1692708 4.6655798,1.74367 5.2718877,1.6310869 5.3750005,1.5468749 5.5047618,1.4409003 5.7963465,1.2594101 5.945313,1.3385416 c 1.0551403,0.5604952 0.0165,0.7057701 0.7630208,1.9609376 0.6223694,1.0464232 1.3061214,-1.7043615 1.3619794,-2.2890625 0.007,-0.073133 0.205595,-0.2463911 0.356771,-0.3307292 z M 0.82552128,8.260416 c 0.070181,0.08296 0.53581212,0.326992 0.60416672,0.411459 0.1900354,0.234858 0.2472398,0.63726 0.5598959,0.73698 0.200732,0.06401 0.6552984,0.149697 0.625,0.364582 -0.01112,0.07892 -0.059477,0.1413643 -0.065104,0.2187513 -0.00995,0.1367627 0,0.2768347 0,0.4140627 -0.040005,0.347616 -0.037228,0.533461 -0.036459,0.708333 0.074957,0.26438 0.4777024,0.270335 1.1796875,1.046875 0.6338002,0.701109 1.0820548,1.914126 1.5312501,2.601562 A 7.3333335,7.3333333 0 0 1 0.68750038,8.268229 Z" />
  </g>
</svg>
