<?xml version="1.0" encoding="UTF-8" standalone="no"?>
<!-- Created with Inkscape (http://www.inkscape.org/) -->

<svg
   width="24"
   height="24"
   viewBox="0 0 16 16"
   version="1.1"
   id="svg1"
   sodipodi:docname="WCS_24.svg"
   inkscape:version="1.3.2 (091e20e, 2023-11-25, custom)"
   xmlns:inkscape="http://www.inkscape.org/namespaces/inkscape"
   xmlns:sodipodi="http://sodipodi.sourceforge.net/DTD/sodipodi-0.dtd"
   xmlns="http://www.w3.org/2000/svg"
   xmlns:svg="http://www.w3.org/2000/svg">
  <sodipodi:namedview
     id="namedview1"
     pagecolor="#ffffff"
     bordercolor="#000000"
     borderopacity="0.25"
     inkscape:showpageshadow="2"
     inkscape:pageopacity="0.0"
     inkscape:pagecheckerboard="0"
     inkscape:deskcolor="#d1d1d1"
     inkscape:zoom="17.921875"
     inkscape:cx="-20.645161"
     inkscape:cy="1.9250218"
     inkscape:window-width="3440"
     inkscape:window-height="1361"
     inkscape:window-x="-9"
     inkscape:window-y="-9"
     inkscape:window-maximized="1"
     inkscape:current-layer="layer1" />
  <defs
     id="defs1" />
  <g
     id="layer1">
    <path
       id="path3-4"
       style="fill:#b3b3b3;stroke-width:2.94118"
       d="M 12.75853,5.7462415 12.180612,6.6073951 A 2.5634332,2.5634332 0 0 0 11.476804,6.8648829 L 10.481171,6.5730618 A 3.3690833,3.3690833 0 0 0 9.8117118,7.3798577 L 10.266601,8.3039538 A 2.5634332,2.5634332 0 0 0 10.135025,9.0449435 L 9.3940103,9.7544651 a 3.3690833,3.3690833 0 0 0 0.3576275,0.9841659 l 1.0184922,0.06867 a 2.5634332,2.5634332 0 0 0 0.583648,0.489225 l 0.24605,0.995631 a 3.3690833,3.3690833 0 0 0 1.029946,0.185951 l 0.577917,-0.858281 a 2.5634332,2.5634332 0 0 0 0.703811,-0.257504 l 0.995611,0.29182 A 3.3690833,3.3690833 0 0 0 15.57371,10.850225 L 15.118819,9.92326 A 2.5634332,2.5634332 0 0 0 15.250393,9.1851274 L 16,8.4670228 A 3.3690833,3.3690833 0 0 0 15.64239,7.4857067 L 14.615291,7.4170501 A 2.5634332,2.5634332 0 0 0 14.034528,6.9278245 L 13.788476,5.9264827 A 3.3690833,3.3690833 0 0 0 12.75853,5.7462415 Z M 12.69278,8.3811979 A 0.73240954,0.73240954 0 0 1 13.425147,9.1136092 0.73240954,0.73240954 0 0 1 12.692736,9.846016 0.73240954,0.73240954 0 0 1 11.960333,9.1136092 0.73240954,0.73240954 0 0 1 12.692736,8.3811979 Z" />
    <path
       id="path2-0"
       style="fill:#1a1a1a;stroke-width:2.83257"
       d="m 5.1268663,5.7462415 a 5.1268663,5.1268663 0 0 0 -0.1115644,0.00847 L 4.4917299,6.7475741 A 4.1747331,4.1747331 0 0 0 3.7078219,6.9564342 L 2.7694221,6.332741 A 5.1268663,5.1268663 0 0 0 1.4304875,7.3369448 L 1.7652206,8.4155312 A 4.1747331,4.1747331 0 0 0 1.3446579,9.1078859 L 0.24604494,9.3310416 A 5.1268663,5.1268663 0 0 0 0,10.873113 5.1268663,5.1268663 0 0 0 0.008436,10.98184 l 0.9956682,0.52358 a 4.1747331,4.1747331 0 0 0 0.2059906,0.783897 l -0.62367744,0.938396 a 5.1268663,5.1268663 0 0 0 1.00420244,1.341789 l 1.078613,-0.337603 a 4.1747331,4.1747331 0 0 0 0.6923555,0.420581 l 0.2231612,1.101467 A 5.1268663,5.1268663 0 0 0 5.1268153,16 5.1268663,5.1268663 0 0 0 5.2383796,15.98944 L 5.7619472,14.994288 A 4.1747331,4.1747331 0 0 0 6.5458628,14.785669 L 7.487124,15.40936 A 5.1268663,5.1268663 0 0 0 8.8232265,14.405948 L 8.488504,13.327708 a 4.1747331,4.1747331 0 0 0 0.4205629,-0.692347 l 1.0986151,-0.223164 a 5.1268663,5.1268663 0 0 0 0.24605,-1.539203 5.1268663,5.1268663 0 0 0 -0.0022,-0.111608 L 9.2523923,10.237967 A 4.1747331,4.1747331 0 0 0 9.0492622,9.4454825 L 9.6729558,8.504221 A 5.1268663,5.1268663 0 0 0 8.6744738,7.173867 L 7.5958885,7.508602 A 4.1747331,4.1747331 0 0 0 6.889226,7.0880381 L 6.6660701,5.9837009 A 5.1268663,5.1268663 0 0 0 5.1268663,5.7462415 Z m 0,2.9296389 a 2.1972278,2.1972278 0 0 1 2.1972291,2.1972326 2.1972278,2.1972278 0 0 1 -2.1972291,2.19724 2.1972278,2.1972278 0 0 1 -2.1972274,-2.19724 2.1972278,2.1972278 0 0 1 2.1972274,-2.1972326 z" />
    <text
       xml:space="preserve"
       style="font-style:normal;font-variant:normal;font-weight:normal;font-stretch:normal;font-size:8.08374px;font-family:Arial;-inkscape-font-specification:Arial;fill:#1a1a1a;stroke-width:1.51569"
       x="-0.03243513"
       y="5.9171062"
       id="text3"
       transform="scale(1.0557564,0.94718821)"><tspan
         id="tspan3"
         x="-0.03243513"
         y="5.9171062"
         style="font-style:normal;font-variant:normal;font-weight:bold;font-stretch:condensed;font-size:8.08374px;font-family:Arial;-inkscape-font-specification:'Arial Bold Condensed';stroke-width:1.51569">WCS</tspan></text>
  </g>
</svg>
